<svg width="80" height="42" viewBox="0 0 80 42" fill="none" xmlns="http://www.w3.org/2000/svg">
<path d="M16.2404 17.2991C15.8249 17.9021 15.9767 18.7277 16.5796 19.1432C17.1826 19.5587 18.0083 19.4069 18.4238 18.804C18.4325 18.7914 18.441 18.7785 18.4493 18.7655C23.058 11.7898 30.8609 7.59377 39.2217 7.59509C39.9539 7.59509 40.5475 7.00144 40.5475 6.26923C40.5475 5.53702 39.9539 4.94336 39.2217 4.94336C29.9722 4.94104 21.3395 9.5824 16.2404 17.2991Z" fill="#F9F9F9"/>
<path d="M9.00246 34.112C9.73477 34.112 10.3284 33.5184 10.3284 32.7861L10.3284 32.5104C10.346 16.5604 23.2717 3.63464 39.2217 3.61707H42.425C44.888 3.61542 47.341 3.92732 49.7253 4.54518C50.4268 4.75516 51.1657 4.35674 51.3756 3.65519C51.5856 2.95364 51.1872 2.2148 50.4856 2.00482C50.4535 1.99521 50.4208 1.98675 50.388 1.97962C48.5568 1.50728 46.6869 1.20068 44.8008 1.06345L42.1493 0.965337L40.293 0.956055L36.8456 1.06345C20.4037 2.32269 7.69822 16.0202 7.67651 32.5104V32.7861C7.67651 33.5184 8.27016 34.112 9.00246 34.112Z" fill="#F9F9F9"/>
<rect y="38.6924" width="40.4395" height="2.63736" rx="1.31868" fill="#F9F9F9"/>
<rect x="44.8352" y="38.6924" width="18.4615" height="2.63736" rx="1.31868" fill="#F9F9F9"/>
<rect x="75.2266" width="34.2074" height="2.38656" rx="1.19328" transform="rotate(90 75.2266 0)" fill="#F9F9F9"/>
<path d="M78.7718 0C78.0935 0 77.5436 0.598228 77.5436 1.33623V9.68764C77.5436 11.7138 76.0285 13.3623 74.1662 13.3623C72.938 14.0542 72.938 15.8927 72.938 15.8927L72.938 32.8712C72.938 33.6092 73.4878 34.2074 74.1662 34.2074C74.8445 34.2074 75.3943 33.6092 75.3943 32.8712V15.8927C78.0233 15.2774 80 12.7291 80 9.68764V1.33623C80 0.598228 79.4501 0 78.7718 0Z" fill="#F9F9F9"/>
<path d="M62.3661 10.769C63.0252 10.769 63.5594 10.1738 63.5594 9.43949V1.32951C63.5594 0.59522 63.0252 0 62.3661 0C61.7071 0 61.1729 0.59522 61.1729 1.32951V9.43949C61.1729 10.1738 61.7071 10.769 62.3661 10.769Z" fill="#F9F9F9"/>
<path d="M66.8386 0C66.1603 0 65.6105 0.598229 65.6105 1.33623V9.68764C65.6105 11.7138 64.0953 13.3623 62.233 13.3623C60.3707 13.3623 58.8555 11.7138 58.8555 9.68764V1.33623C58.8555 0.598229 58.3057 0 57.6273 0C56.949 0 56.3992 0.598229 56.3992 1.33623V9.68764C56.3992 12.7291 58.3759 15.2774 61.0048 15.8927V32.8712C61.0048 33.6092 61.5547 34.2074 62.233 34.2074C62.9113 34.2074 63.4612 33.6092 63.4612 32.8712V15.8927C66.0901 15.2774 68.0668 12.7291 68.0668 9.68764V1.33623C68.0668 0.598229 67.517 0 66.8386 0Z" fill="#F9F9F9"/>
</svg>
