<svg width="80" height="46" viewBox="0 0 80 46" fill="none" xmlns="http://www.w3.org/2000/svg">
<path d="M0 45.2861C0 45.01 0.223858 44.7861 0.5 44.7861H79.5C79.7761 44.7861 80 45.01 80 45.2861C80 45.5623 79.7761 45.7861 79.5 45.7861H0.500002C0.22386 45.7861 0 45.5623 0 45.2861Z" fill="#F9F9F9"/>
<path fill-rule="evenodd" clip-rule="evenodd" d="M79.0571 39.5216H77.853C77.552 39.4853 76.7994 39.3035 76.6865 37.8128V37.7764C76.0397 24.261 67.9033 12.6667 56.2728 6.97456C56.7437 11.1816 57.293 17.3505 56.6021 18.3626C55.7452 19.6149 54.3765 20.6196 52.7766 20.9647L54.1777 41.0487H61.1129L61.7733 29.4245C61.7733 29.4245 60.952 28.9856 60.7865 28.9061H60.7946C59.2445 28.1828 58.1269 26.2045 58.1269 23.6491C58.1269 20.8003 60.4094 18.6004 62.6179 18.5785V18.5774H62.6213H62.6247V18.5785C64.8332 18.6003 67.1157 20.8015 67.1157 23.6491C67.1157 26.2257 65.9807 28.2163 64.411 28.9252H64.418C64.4064 28.9295 63.3815 29.4334 63.3815 29.4334L64.0655 41.0487H79.0571C79.5839 41.0487 79.9978 40.7215 79.9978 40.2852C80.0354 39.8489 79.5839 39.5216 79.0571 39.5216ZM53.349 5.69769C53.7567 5.85505 54.1609 6.0194 54.5613 6.19057V15.9533H53.349V5.69769ZM50.8105 4.82302C51.2183 4.94707 51.6231 5.07795 52.0247 5.21551V15.9533H50.8105V4.82302ZM48.2223 4.13744C48.6296 4.22965 49.0344 4.32854 49.4364 4.43399V15.9533H48.2223V4.13744ZM41.0525 3.2359C43.1374 3.29504 45.1786 3.5256 47.1621 3.91376C46.7653 7.02399 45.5701 17.0489 46.4699 18.3626C47.3178 19.6045 48.6724 20.6023 50.2544 20.956C50.2863 20.9665 50.3059 20.9752 50.3059 20.9752L48.8979 41.0487H41.6545H37.5531H30.065H28.0331H20.0559H0.940708C0.413911 41.0487 0 40.6851 0 40.2852C0 39.8489 0.413911 39.5216 0.940708 39.5216H2.5211C2.85975 39.4126 3.23604 39.0853 3.31129 38.0673C4.06386 19.0518 19.642 3.78128 38.9453 3.2359C38.9077 3.09047 38.8701 2.90868 38.8701 2.76324C38.6934 2.73277 38.549 2.61781 38.549 2.54509C38.549 2.47237 38.6453 2.36045 38.8701 2.32694V2.32691C38.8701 2.21784 38.8701 2.10878 38.9077 1.99972C38.3056 1.81792 37.9293 1.4907 37.9293 1.09075C37.9293 0.509018 38.87 0 40.0365 0C41.203 0 42.1437 0.47266 42.1437 1.09075C42.1437 1.4907 41.6922 1.85428 41.0525 2.03607C41.0525 2.06876 41.0601 2.10144 41.0685 2.13743C41.0787 2.18151 41.0901 2.23054 41.0901 2.29058C41.3159 2.3633 41.4664 2.43602 41.4664 2.54509C41.4664 2.61781 41.3159 2.72688 41.0901 2.7996C41.0901 2.94503 41.0901 3.09047 41.0525 3.2359ZM61.4296 27.886C61.55 27.9174 61.6286 27.923 61.6426 27.923C61.7015 27.9241 61.7513 27.8883 61.7641 27.8379C61.7744 27.7875 61.7466 27.7361 61.6923 27.7092C61.6923 27.7086 61.6879 27.7061 61.6797 27.7014C61.6545 27.6867 61.5929 27.651 61.5141 27.5884C61.4517 27.5451 61.38 27.48 61.2998 27.4072C61.2908 27.399 61.2816 27.3907 61.2723 27.3822C61.2361 27.3497 61.1971 27.3154 61.1572 27.2804C61.1245 27.2516 61.0912 27.2224 61.0583 27.1931C60.7839 26.9318 60.5543 26.5676 60.3085 26.1777C60.231 26.0547 60.1518 25.9292 60.0692 25.8036C59.9986 25.6884 59.9291 25.535 59.8852 25.4018C59.832 25.2484 59.7892 25.1005 59.7568 24.9595C59.677 24.6338 59.6099 24.0207 59.589 23.7868C59.5636 23.5219 59.5462 23.3238 59.5636 23.1765C59.5659 23.0265 59.5855 22.8798 59.5867 22.8765C59.5902 22.8211 59.5486 22.7718 59.4803 22.7495C59.4155 22.7332 59.3506 22.7629 59.3275 22.8188C59.3275 22.8188 59.2835 22.9409 59.2188 23.1195C59.168 23.2729 59.0985 23.5163 59.0754 23.8052C59.058 24.0582 59.0615 24.7232 59.1031 25.0825C59.1297 25.2729 59.1632 25.4419 59.2095 25.611C59.2675 25.8057 59.3381 25.9682 59.4397 26.1473C59.4673 26.1905 59.4946 26.2336 59.5217 26.2766C59.8127 26.7369 60.0966 27.186 60.7123 27.5545C60.9131 27.683 61.1056 27.7608 61.2517 27.8197C61.2623 27.824 61.2726 27.8282 61.2826 27.8322L61.337 27.8535C61.3623 27.8641 61.3862 27.8718 61.4097 27.8795C61.4164 27.8817 61.423 27.8838 61.4296 27.886Z" fill="#F9F9F9"/>
</svg>
