<svg width="46" height="37" viewBox="0 0 46 37" fill="none" xmlns="http://www.w3.org/2000/svg">
<path d="M9.33881 9.94672C9.0999 10.2934 9.1872 10.7682 9.53389 11.0071C9.88058 11.246 10.3553 11.1587 10.5943 10.812C10.5993 10.8048 10.6042 10.7973 10.6089 10.7899C13.259 6.77886 17.7456 4.36612 22.5531 4.36689C22.9741 4.36689 23.3155 4.02553 23.3155 3.60451C23.3155 3.18349 22.9741 2.84213 22.5531 2.84213C17.2347 2.8408 12.2708 5.50959 9.33881 9.94672Z" fill="#F9F9F9"/>
<path d="M5.17698 19.6143C5.59805 19.6143 5.9394 19.2729 5.9394 18.8519L5.9394 18.6933C5.9495 9.52202 13.3818 2.08971 22.5531 2.07961H24.395C25.8112 2.07865 27.2217 2.258 28.5927 2.61327C28.9961 2.73401 29.4209 2.50492 29.5416 2.10152C29.6624 1.69813 29.4333 1.2733 29.0299 1.15256C29.0114 1.14703 28.9926 1.14217 28.9738 1.13807C27.9208 0.866473 26.8456 0.690173 25.7611 0.611267L24.2364 0.554852L23.1691 0.549515L21.1868 0.611268C11.7327 1.33534 4.42703 9.21145 4.41455 18.6933V18.8518C4.41455 19.2729 4.7559 19.6143 5.17698 19.6143Z" fill="#F9F9F9"/>
<rect y="22.2484" width="23.2528" height="1.51649" rx="0.758243" fill="#F9F9F9"/>
<rect x="25.7803" y="22.2484" width="10.6154" height="1.51649" rx="0.758243" fill="#F9F9F9"/>
<rect x="43.2554" y="3.05176e-05" width="19.6693" height="1.37228" rx="0.68614" transform="rotate(90 43.2554 3.05176e-05)" fill="#F9F9F9"/>
<path d="M45.2939 3.05176e-05C44.9039 3.05176e-05 44.5877 0.344013 44.5877 0.768363V5.57044C44.5877 6.73551 43.7165 7.68336 42.6457 7.68336C41.9395 8.08123 41.9395 9.13839 41.9395 9.13839L41.9395 18.901C41.9395 19.3254 42.2556 19.6694 42.6457 19.6694C43.0357 19.6694 43.3519 19.3254 43.3519 18.901V9.13839C44.8635 8.78457 46.0001 7.31929 46.0001 5.57044V0.768363C46.0001 0.344013 45.6839 3.05176e-05 45.2939 3.05176e-05Z" fill="#F9F9F9"/>
<path d="M35.8605 6.19233C36.2394 6.19233 36.5466 5.85008 36.5466 5.42786V0.764606C36.5466 0.34239 36.2394 0.000137329 35.8605 0.000137329C35.4815 0.000137329 35.1743 0.34239 35.1743 0.764606V5.42786C35.1743 5.85008 35.4815 6.19233 35.8605 6.19233Z" fill="url(#paint0_linear)"/>
<path d="M38.4324 0.000457764C38.0424 0.000457764 37.7262 0.34444 37.7262 0.768791V5.57087C37.7262 6.73593 36.855 7.68379 35.7841 7.68379C34.7133 7.68379 33.8421 6.73593 33.8421 5.57087V0.768791C33.8421 0.34444 33.5259 0.000457764 33.1359 0.000457764C32.7459 0.000457764 32.4297 0.34444 32.4297 0.768791V5.57087C32.4297 7.31971 33.5663 8.785 35.0779 9.13882V18.9014C35.0779 19.3258 35.3941 19.6698 35.7841 19.6698C36.1742 19.6698 36.4903 19.3258 36.4903 18.9014V9.13882C38.002 8.785 39.1386 7.31971 39.1386 5.57087V0.768791C39.1386 0.34444 38.8224 0.000457764 38.4324 0.000457764Z" fill="#F9F9F9"/>
<path d="M8.74353 32.9928C8.93187 32.9928 9.08762 33.0537 9.21076 33.1756C9.34115 33.2904 9.40635 33.4409 9.40635 33.6274C9.40635 33.8066 9.34115 33.9572 9.21076 34.0791C9.08762 34.1938 8.93187 34.2512 8.74353 34.2512H5.21213C5.02379 34.2512 4.86443 34.1902 4.73404 34.0683C4.61089 33.9393 4.54932 33.7815 4.54932 33.5951V27.3786C4.54932 27.1922 4.61451 27.038 4.7449 26.9161C4.87529 26.787 5.0419 26.7225 5.24473 26.7225C5.42583 26.7225 5.58157 26.787 5.71196 26.9161C5.84235 27.038 5.90755 27.1922 5.90755 27.3786V32.9928H8.74353Z" fill="#F9F9F9"/>
<path d="M15.6164 28.4971C15.8048 28.4971 15.9605 28.5616 16.0837 28.6907C16.2068 28.8126 16.2684 28.9668 16.2684 29.1532V31.885C16.2684 32.6594 16.0511 33.2653 15.6164 33.7026C15.189 34.14 14.5769 34.3587 13.7801 34.3587C12.9833 34.3587 12.3712 34.14 11.9438 33.7026C11.5164 33.2653 11.3027 32.6594 11.3027 31.885V29.1532C11.3027 28.9668 11.3643 28.8126 11.4874 28.6907C11.6106 28.5616 11.7663 28.4971 11.9546 28.4971C12.143 28.4971 12.2987 28.5616 12.4219 28.6907C12.545 28.8126 12.6066 28.9668 12.6066 29.1532V31.885C12.6066 32.3224 12.7044 32.6486 12.9 32.8637C13.0956 33.0717 13.3889 33.1756 13.7801 33.1756C14.1785 33.1756 14.4755 33.0717 14.6711 32.8637C14.8667 32.6486 14.9645 32.3224 14.9645 31.885V29.1532C14.9645 28.9668 15.0261 28.8126 15.1492 28.6907C15.2723 28.5616 15.4281 28.4971 15.6164 28.4971Z" fill="#F9F9F9"/>
<path d="M20.9724 28.3896C21.5881 28.3896 22.0843 28.4864 22.461 28.68C22.8377 28.8664 23.026 29.1173 23.026 29.4328C23.026 29.5906 22.9789 29.7304 22.8848 29.8523C22.7906 29.967 22.6674 30.0244 22.5153 30.0244C22.3994 30.0244 22.3052 30.01 22.2328 29.9813C22.1604 29.9455 22.0879 29.9025 22.0155 29.8523C21.9503 29.7949 21.8851 29.7483 21.8199 29.7125C21.7475 29.6766 21.6388 29.6443 21.4939 29.6157C21.3563 29.587 21.244 29.5726 21.1571 29.5726C20.6138 29.5726 20.1864 29.7411 19.8749 30.0781C19.5707 30.408 19.4185 30.8418 19.4185 31.3795C19.4185 31.8958 19.5743 32.326 19.8858 32.6701C20.1973 33.0071 20.5957 33.1756 21.081 33.1756C21.436 33.1756 21.7004 33.1326 21.8742 33.0466C21.9177 33.0251 21.9756 32.9892 22.0481 32.939C22.1278 32.8817 22.2002 32.8386 22.2654 32.81C22.3306 32.7813 22.4103 32.7669 22.5044 32.7669C22.6855 32.7669 22.8268 32.8243 22.9282 32.939C23.0369 33.0537 23.0912 33.2007 23.0912 33.38C23.0912 33.5521 22.9898 33.7134 22.787 33.864C22.5841 34.0145 22.3161 34.1364 21.9829 34.2297C21.6497 34.3157 21.2947 34.3587 20.918 34.3587C20.3603 34.3587 19.8677 34.2297 19.4403 33.9715C19.0201 33.7134 18.6942 33.3585 18.4624 32.9068C18.2305 32.4479 18.1146 31.9388 18.1146 31.3795C18.1146 30.7987 18.2342 30.2825 18.4732 29.8308C18.7195 29.379 19.06 29.0277 19.4946 28.7768C19.9292 28.5186 20.4218 28.3896 20.9724 28.3896Z" fill="#F9F9F9"/>
<path d="M29.6286 33.1219C29.7663 33.2653 29.8351 33.4266 29.8351 33.6058C29.8351 33.7851 29.7626 33.9357 29.6178 34.0576C29.4801 34.1795 29.3316 34.2404 29.1723 34.2404C28.9839 34.2404 28.8245 34.1687 28.6942 34.0253L26.7383 31.9818L26.2059 32.4658V33.5951C26.2059 33.7815 26.1443 33.9393 26.0212 34.0683C25.898 34.1902 25.7423 34.2512 25.5539 34.2512C25.3656 34.2512 25.2098 34.1902 25.0867 34.0683C24.9636 33.9393 24.902 33.7815 24.902 33.5951V26.9484C24.902 26.7619 24.9636 26.6078 25.0867 26.4859C25.2098 26.3568 25.3656 26.2923 25.5539 26.2923C25.7423 26.2923 25.898 26.3568 26.0212 26.4859C26.1443 26.6078 26.2059 26.7619 26.2059 26.9484V30.9278L28.5312 28.7015C28.6688 28.5652 28.8282 28.4971 29.0093 28.4971C29.1686 28.4971 29.3099 28.5652 29.433 28.7015C29.5634 28.8305 29.6286 28.9632 29.6286 29.0994C29.6286 29.2715 29.5417 29.4328 29.3678 29.5834L27.7271 31.0784L29.6286 33.1219Z" fill="#F9F9F9"/>
<path d="M36.7118 31.2397C36.7045 31.4118 36.6357 31.5516 36.5053 31.6592C36.375 31.7667 36.2228 31.8205 36.049 31.8205H32.4632C32.5502 32.2435 32.7494 32.5769 33.0609 32.8207C33.3724 33.0573 33.7237 33.1756 34.1149 33.1756C34.4119 33.1756 34.6437 33.1505 34.8103 33.1004C34.9769 33.043 35.1073 32.9856 35.2014 32.9283C35.3029 32.8637 35.3717 32.8207 35.4079 32.7992C35.5383 32.7347 35.6614 32.7024 35.7773 32.7024C35.9295 32.7024 36.0598 32.7562 36.1685 32.8637C36.2772 32.9713 36.3315 33.0968 36.3315 33.2402C36.3315 33.4338 36.2301 33.6094 36.0272 33.7672C35.8244 33.9321 35.5528 34.0719 35.2123 34.1866C34.8718 34.3014 34.5278 34.3587 34.18 34.3587C33.5716 34.3587 33.0391 34.2332 32.5828 33.9823C32.1336 33.7313 31.7859 33.3872 31.5396 32.9498C31.2934 32.5052 31.1702 32.0069 31.1702 31.4548C31.1702 30.8382 31.3006 30.2968 31.5614 29.8308C31.8222 29.3647 32.1662 29.0098 32.5936 28.766C33.021 28.515 33.4774 28.3896 33.9627 28.3896C34.4408 28.3896 34.89 28.5186 35.3101 28.7768C35.7375 29.0349 36.0779 29.3826 36.3315 29.82C36.585 30.2574 36.7118 30.7306 36.7118 31.2397ZM33.9627 29.5726C33.1224 29.5726 32.6262 29.9634 32.4741 30.745H35.321V30.6697C35.292 30.3685 35.1435 30.1104 34.8755 29.8953C34.6074 29.6802 34.3032 29.5726 33.9627 29.5726Z" fill="#F9F9F9"/>
<path d="M42.8205 28.4971C43.0089 28.4971 43.1646 28.5616 43.2878 28.6907C43.4109 28.8126 43.4725 28.9668 43.4725 29.1532V33.7242C43.4725 34.6563 43.2189 35.3339 42.7119 35.7569C42.2048 36.1871 41.5275 36.4022 40.6799 36.4022C40.4337 36.4022 40.1801 36.3807 39.9193 36.3377C39.6658 36.3018 39.4594 36.2516 39.3 36.1871C38.945 36.0365 38.7676 35.8286 38.7676 35.5633C38.7676 35.5131 38.7784 35.4557 38.8002 35.3912C38.8436 35.2335 38.9161 35.1116 39.0175 35.0255C39.1261 34.9467 39.242 34.9072 39.3652 34.9072C39.4376 34.9072 39.5064 34.918 39.5716 34.9395C39.6223 34.961 39.7093 34.9969 39.8324 35.047C39.9628 35.0972 40.0968 35.1367 40.2344 35.1654C40.3793 35.2012 40.5278 35.2191 40.6799 35.2191C41.1943 35.2191 41.5709 35.108 41.81 34.8857C42.0563 34.6706 42.1794 34.2978 42.1794 33.7672V33.6596C41.8027 34.1257 41.216 34.3587 40.4192 34.3587C40.0425 34.3587 39.7093 34.2727 39.4195 34.1006C39.1298 33.9213 38.9052 33.6775 38.7458 33.3692C38.5865 33.0537 38.5068 32.6952 38.5068 32.2937V29.1532C38.5068 28.9668 38.5684 28.8126 38.6915 28.6907C38.8146 28.5616 38.9704 28.4971 39.1587 28.4971C39.3471 28.4971 39.5028 28.5616 39.626 28.6907C39.7491 28.8126 39.8107 28.9668 39.8107 29.1532V31.9065C39.8107 32.3582 39.9085 32.6845 40.1041 32.8852C40.3069 33.0788 40.6003 33.1756 40.9842 33.1756C41.3609 33.1756 41.6506 33.0681 41.8535 32.853C42.0635 32.6307 42.1686 32.3152 42.1686 31.9065V29.1532C42.1686 28.9668 42.2301 28.8126 42.3533 28.6907C42.4764 28.5616 42.6322 28.4971 42.8205 28.4971Z" fill="#F9F9F9"/>
<defs>
<linearGradient id="paint0_linear" x1="35.4793" y1="0.688159" x2="37.6675" y2="1.46944" gradientUnits="userSpaceOnUse">
<stop stop-color="#EB7203"/>
<stop offset="1" stop-color="#D20000"/>
</linearGradient>
</defs>
</svg>
