<svg width="14" height="14" viewBox="0 0 14 14" fill="none" xmlns="http://www.w3.org/2000/svg">
<path fill-rule="evenodd" clip-rule="evenodd" d="M7.58268 7.58317C7.58268 7.90517 7.32135 8.1665 6.99935 8.1665C6.67735 8.1665 6.41602 7.90517 6.41602 7.58317V4.6665C6.41602 4.3445 6.67735 4.08317 6.99935 4.08317C7.32135 4.08317 7.58268 4.3445 7.58268 4.6665V7.58317ZM6.99935 9.91651C6.67735 9.91651 6.41602 9.65517 6.41602 9.33317C6.41602 9.01117 6.67735 8.74984 6.99935 8.74984C7.32135 8.74984 7.58268 9.01117 7.58268 9.33317C7.58268 9.65517 7.32135 9.91651 6.99935 9.91651ZM6.99935 1.1665C3.7776 1.1665 1.16602 3.77809 1.16602 6.99984C1.16602 10.2216 3.7776 12.8332 6.99935 12.8332C10.2211 12.8332 12.8327 10.2216 12.8327 6.99984C12.8327 3.77809 10.2211 1.1665 6.99935 1.1665Z" fill="white"/>
<mask id="mask0" mask-type="alpha" maskUnits="userSpaceOnUse" x="1" y="1" width="12" height="12">
<path fill-rule="evenodd" clip-rule="evenodd" d="M7.58268 7.58317C7.58268 7.90517 7.32135 8.1665 6.99935 8.1665C6.67735 8.1665 6.41602 7.90517 6.41602 7.58317V4.6665C6.41602 4.3445 6.67735 4.08317 6.99935 4.08317C7.32135 4.08317 7.58268 4.3445 7.58268 4.6665V7.58317ZM6.99935 9.91651C6.67735 9.91651 6.41602 9.65517 6.41602 9.33317C6.41602 9.01117 6.67735 8.74984 6.99935 8.74984C7.32135 8.74984 7.58268 9.01117 7.58268 9.33317C7.58268 9.65517 7.32135 9.91651 6.99935 9.91651ZM6.99935 1.1665C3.7776 1.1665 1.16602 3.77809 1.16602 6.99984C1.16602 10.2216 3.7776 12.8332 6.99935 12.8332C10.2211 12.8332 12.8327 10.2216 12.8327 6.99984C12.8327 3.77809 10.2211 1.1665 6.99935 1.1665Z" fill="white"/>
</mask>
<g mask="url(#mask0)">
<rect width="14" height="14" fill="#6F5CF2"/>
</g>
</svg>
