<svg width="19" height="19" viewBox="0 0 19 19" fill="none" xmlns="http://www.w3.org/2000/svg">
<path d="M9.5 19C4.26163 19 0 14.7384 0 9.5C0 4.26163 4.26163 0 9.5 0C14.7384 0 19 4.26163 19 9.5C19 14.7384 14.7384 19 9.5 19ZM9.5 1.3571C5.01006 1.3571 1.3571 5.01006 1.3571 9.5C1.3571 13.9899 5.01006 17.6429 9.5 17.6429C13.9899 17.6429 17.6429 13.9899 17.6429 9.5C17.6429 5.01006 13.9899 1.3571 9.5 1.3571Z" fill="#D17979"/>
<path d="M12.893 13.5715C12.7194 13.5715 12.5457 13.5053 12.4132 13.3726L5.62756 6.58698C5.36243 6.32185 5.36243 5.89249 5.62756 5.6275C5.89254 5.36252 6.32205 5.36237 6.58704 5.6275L13.3727 12.4132C13.6378 12.6783 13.6378 13.1076 13.3727 13.3726C13.2402 13.5053 13.0667 13.5715 12.893 13.5715Z" fill="#D17979"/>
<path d="M6.10723 13.5716C5.93357 13.5716 5.76005 13.5053 5.62756 13.3727C5.36243 13.1077 5.36243 12.6782 5.62756 12.4132L12.4132 5.62756C12.6783 5.36243 13.1077 5.36243 13.3727 5.62756C13.6377 5.89254 13.6378 6.32205 13.3727 6.58704L6.58704 13.3727C6.45455 13.5053 6.28089 13.5716 6.10723 13.5716Z" fill="#D17979"/>
</svg>
