<svg width="18" height="18" viewBox="0 0 18 18" fill="none" xmlns="http://www.w3.org/2000/svg">
<path d="M10.6491 9.01656L17.6579 2.0075C18.1141 1.55159 18.1141 0.814445 17.6579 0.358534C17.202 -0.097376 16.4649 -0.097376 16.009 0.358534L8.99991 7.3676L1.99106 0.358534C1.53493 -0.097376 0.798003 -0.097376 0.342093 0.358534C-0.114031 0.814445 -0.114031 1.55159 0.342093 2.0075L7.35094 9.01656L0.342093 16.0256C-0.114031 16.4815 -0.114031 17.2187 0.342093 17.6746C0.569301 17.902 0.868045 18.0163 1.16658 18.0163C1.46511 18.0163 1.76364 17.902 1.99106 17.6746L8.99991 10.6655L16.009 17.6746C16.2364 17.902 16.5349 18.0163 16.8335 18.0163C17.132 18.0163 17.4305 17.902 17.6579 17.6746C18.1141 17.2187 18.1141 16.4815 17.6579 16.0256L10.6491 9.01656Z" fill="#222325"/>
</svg>
