<svg width="34" height="34" viewBox="0 0 34 34" fill="none" xmlns="http://www.w3.org/2000/svg">
<path d="M17 34C26.3888 34 34 26.3888 34 17C34 7.61116 26.3888 0 17 0C7.61116 0 0 7.61116 0 17C0 26.3888 7.61116 34 17 34Z" fill="#2B2B2B"/>
<g clip-path="url(#clip0)">
<path d="M24.9797 13.704C24.9422 12.8539 24.8047 12.2694 24.6078 11.763C24.4046 11.2254 24.092 10.7441 23.6825 10.344C23.2824 9.93768 22.798 9.62195 22.2666 9.42196C21.7572 9.22502 21.1758 9.08754 20.3257 9.05006C19.4692 9.0094 19.1973 9 17.025 9C14.8527 9 14.5808 9.0094 13.7275 9.04688C12.8773 9.08437 12.2929 9.22197 11.7865 9.41878C11.2488 9.62195 10.7676 9.93451 10.3674 10.344C9.96112 10.7441 9.64551 11.2286 9.44539 11.7599C9.24846 12.2694 9.11098 12.8507 9.0735 13.7009C9.03284 14.5574 9.02344 14.8293 9.02344 17.0016C9.02344 19.1739 9.03284 19.4458 9.07032 20.2991C9.1078 21.1492 9.2454 21.7337 9.44234 22.2401C9.64551 22.7777 9.96112 23.259 10.3674 23.6591C10.7676 24.0654 11.252 24.3812 11.7834 24.5812C12.2929 24.7781 12.8742 24.9156 13.7244 24.9531C14.5776 24.9907 14.8496 25 17.0219 25C19.1942 25 19.4661 24.9907 20.3195 24.9531C21.1696 24.9156 21.7541 24.7781 22.2604 24.5812C23.3357 24.1654 24.1858 23.3153 24.6015 22.2401C24.7984 21.7306 24.936 21.1492 24.9734 20.2991C25.0109 19.4458 25.0203 19.1739 25.0203 17.0016C25.0203 14.8293 25.0172 14.5574 24.9797 13.704ZM23.5388 20.2366C23.5044 21.018 23.3732 21.4399 23.2638 21.7212C22.9949 22.4183 22.4417 22.9715 21.7447 23.2403C21.4634 23.3497 21.0384 23.481 20.26 23.5153C19.4161 23.5529 19.163 23.5622 17.0282 23.5622C14.8934 23.5622 14.6371 23.5529 13.7962 23.5153C13.0148 23.481 12.5929 23.3497 12.3116 23.2403C11.9647 23.1121 11.6489 22.909 11.3927 22.6433C11.127 22.3838 10.9238 22.0713 10.7956 21.7244C10.6862 21.4431 10.555 21.018 10.5207 20.2397C10.4831 19.3958 10.4738 19.1426 10.4738 17.0078C10.4738 14.873 10.4831 14.6167 10.5207 13.776C10.555 12.9946 10.6862 12.5726 10.7956 12.2913C10.9238 11.9443 11.127 11.6287 11.3958 11.3723C11.6552 11.1066 11.9677 10.9034 12.3147 10.7754C12.596 10.666 13.0212 10.5347 13.7994 10.5003C14.6433 10.4628 14.8965 10.4534 17.0312 10.4534C19.1692 10.4534 19.4223 10.4628 20.2632 10.5003C21.0446 10.5347 21.4665 10.666 21.7478 10.7754C22.0947 10.9034 22.4104 11.1066 22.6667 11.3723C22.9324 11.6317 23.1356 11.9443 23.2638 12.2913C23.3732 12.5726 23.5044 12.9976 23.5388 13.776C23.5763 14.6199 23.5857 14.873 23.5857 17.0078C23.5857 19.1426 23.5763 19.3927 23.5388 20.2366Z" fill="white"/>
<path d="M17.0321 12.8906C14.7629 12.8906 12.9219 14.7316 12.9219 17.0008C12.9219 19.27 14.7629 21.111 17.0321 21.111C19.3013 21.111 21.1422 19.27 21.1422 17.0008C21.1422 14.7316 19.3013 12.8906 17.0321 12.8906ZM17.0321 19.667C15.56 19.667 14.3659 18.473 14.3659 17.0008C14.3659 15.5286 15.56 14.3346 17.0321 14.3346C18.5043 14.3346 19.6982 15.5286 19.6982 17.0008C19.6982 18.473 18.5043 19.667 17.0321 19.667Z" fill="white"/>
<path d="M22.259 12.7291C22.259 13.259 21.8294 13.6886 21.2994 13.6886C20.7695 13.6886 20.3398 13.259 20.3398 12.7291C20.3398 12.1991 20.7695 11.7695 21.2994 11.7695C21.8294 11.7695 22.259 12.1991 22.259 12.7291Z" fill="white"/>
</g>
<defs>
<clipPath id="clip0">
<rect width="16" height="16" fill="white" transform="translate(9 9)"/>
</clipPath>
</defs>
</svg>
