<svg width="47" height="40" viewBox="0 0 47 40" fill="none" xmlns="http://www.w3.org/2000/svg">
<path d="M1 32.1538H3.09915V38.1209H6.64014V39.8462H1V32.1538Z" fill="#F9F9F9"/>
<path d="M11.1408 40C10.0382 40 9.17943 39.6886 8.56453 39.0659C7.95669 38.4432 7.65278 37.5604 7.65278 36.4176V32.1538H9.75193V36.3516C9.75193 37.5824 10.2219 38.1978 11.162 38.1978C12.0949 38.1978 12.5614 37.5824 12.5614 36.3516V32.1538H14.6287V36.4176C14.6287 37.5604 14.3213 38.4432 13.7064 39.0659C13.0986 39.6886 12.2433 40 11.1408 40Z" fill="#F9F9F9"/>
<path d="M20.0689 40C19.2914 40 18.5917 39.8315 17.9697 39.4945C17.3548 39.1502 16.8707 38.674 16.5173 38.0659C16.1639 37.4579 15.9872 36.7692 15.9872 36C15.9872 35.2308 16.1639 34.5421 16.5173 33.9341C16.8707 33.326 17.3548 32.8535 17.9697 32.5165C18.5917 32.1722 19.2914 32 20.0689 32C20.7474 32 21.3587 32.1245 21.903 32.3736C22.4472 32.6227 22.8995 32.9817 23.26 33.4505L21.9242 34.7033C21.4436 34.1026 20.8605 33.8022 20.1749 33.8022C19.772 33.8022 19.4115 33.8938 19.0935 34.0769C18.7825 34.2601 18.5387 34.5201 18.362 34.8571C18.1923 35.1868 18.1075 35.5678 18.1075 36C18.1075 36.4322 18.1923 36.8169 18.362 37.1538C18.5387 37.4835 18.7825 37.7399 19.0935 37.9231C19.4115 38.1062 19.772 38.1978 20.1749 38.1978C20.8605 38.1978 21.4436 37.8974 21.9242 37.2967L23.26 38.5495C22.8995 39.0183 22.4472 39.3773 21.903 39.6264C21.3587 39.8755 20.7474 40 20.0689 40Z" fill="#F9F9F9"/>
<path d="M27.3765 37.0549L26.5919 37.9231V39.8462H24.514V32.1538H26.5919V35.3516L29.465 32.1538H31.7762L28.7441 35.5604L31.9352 39.8462H29.4968L27.3765 37.0549Z" fill="#F9F9F9"/>
<path d="M38.7623 38.1648V39.8462H32.8041V32.1538H38.6244V33.8352H34.882V35.1319H38.1792V36.7582H34.882V38.1648H38.7623Z" fill="#F9F9F9"/>
<path d="M44.1587 37.0879V39.8462H42.0596V37.0549L39.2289 32.1538H41.4447L43.2046 35.2088L44.9645 32.1538H47L44.1587 37.0879Z" fill="#F9F9F9"/>
<path d="M0 26.5C0 26.2239 0.223858 26 0.5 26H46.5C46.7761 26 47 26.2239 47 26.5C47 26.7761 46.7761 27 46.5 27H0.5C0.223858 27 0 26.7761 0 26.5Z" fill="#F9F9F9"/>
<path d="M46.446 23.1072H45.7386C45.5618 23.0859 45.1196 22.9796 45.0533 22.1081V22.0868C44.5228 11.054 35.4148 2.21081 24.1183 1.89194C24.1404 1.80691 24.1404 1.72188 24.1404 1.63685C24.2731 1.59433 24.3615 1.53056 24.3615 1.48804C24.3615 1.42427 24.2731 1.38175 24.1404 1.33924C24.1404 1.27547 24.1183 1.23295 24.1183 1.19043C24.4942 1.08415 24.7594 0.871568 24.7594 0.637732C24.7594 0.276351 24.2068 0 23.5215 0C22.8362 0 22.2835 0.297608 22.2835 0.637732C22.2835 0.871568 22.5046 1.06289 22.8583 1.16918C22.8362 1.23295 22.8362 1.29672 22.8362 1.3605C22.7041 1.38009 22.6475 1.44553 22.6475 1.48804C22.6475 1.53056 22.7324 1.59777 22.8362 1.61559C22.8362 1.70062 22.8583 1.80691 22.8804 1.89194C11.5397 2.21081 2.38752 11.1391 1.94538 22.2569C1.90117 22.8521 1.6801 23.0434 1.48114 23.1072H0.552666C0.243173 23.1072 0 23.2985 0 23.5536C0 23.7874 0.243173 24 0.552666 24H11.7828H16.4694H17.6632H22.0624H24.472H29.0481H30.2861H37.2276H46.446C46.7555 24 46.9987 23.8087 46.9987 23.5536C47.0208 23.2985 46.7555 23.1072 46.446 23.1072Z" fill="#F9F9F9"/>
<path d="M27.6341 2H28.1571V9.31325H28.8325V2H29.5968V9.31325H30.2722V2H31.0089V9.31325H31.6832V2H32.3646C32.3646 2 33.4107 9.79279 32.8184 10.6731C32.3418 11.3799 31.5804 11.947 30.6905 12.1418L31.4875 23.7349C31.4875 24.4196 30.9278 25 30.2386 25C30.204 25 29.7967 25 29.763 25C29.0728 25 28.5152 24.4443 28.5152 23.7605C28.5152 23.7428 28.5142 23.7418 28.5152 23.7349L29.3162 12.1477C29.3162 12.1477 29.3053 12.1428 29.2875 12.1369C28.4075 11.9373 27.654 11.3741 27.1824 10.6731C26.5888 9.79381 27.6341 2 27.6341 2Z" fill="#222325"/>
<path d="M39 13.9256C39 12.283 37.7304 11.0132 36.5019 11.0007V11C36.5013 11 36.5007 11 36.5 11C36.4994 11 36.4988 11 36.4981 11V11.0007C35.2697 11.0133 34 12.2823 34 13.9256C34 15.3997 34.6217 16.5409 35.4839 16.9581H35.4794C35.5715 17.004 36.0283 17.2572 36.0283 17.2572L35.6499 24.1637C35.6493 24.1694 35.6499 24.1746 35.6499 24.1804C35.6499 24.63 35.8739 25 36.323 25C36.3456 25 36.6094 25 36.6326 25C37.0811 25 37.3166 24.6409 37.3166 24.1907C37.3166 24.185 37.316 24.1791 37.3154 24.1746L36.9229 17.2623C36.9229 17.2623 37.493 16.9716 37.4994 16.9691H37.4955C38.3687 16.5603 39 15.412 39 13.9256ZM35.9556 16.3911C35.9479 16.3911 35.9041 16.3878 35.8371 16.3697C35.8204 16.3639 35.8037 16.3588 35.7856 16.351L35.7554 16.3387C35.6724 16.3038 35.5579 16.258 35.4381 16.1785C35.0636 15.946 34.9098 15.658 34.7303 15.3667C34.6737 15.2634 34.6344 15.1697 34.6022 15.0573C34.5765 14.9598 34.5578 14.8623 34.543 14.7525C34.5199 14.5452 34.5179 14.1616 34.5276 14.0157C34.5405 13.849 34.5791 13.7086 34.6074 13.6201C34.6434 13.5171 34.6678 13.4467 34.6678 13.4467C34.6807 13.4144 34.7168 13.3973 34.7528 13.4067C34.7908 13.4196 34.814 13.448 34.812 13.4799C34.8113 13.4819 34.8004 13.5665 34.7992 13.653C34.7895 13.738 34.7992 13.8522 34.8133 14.0051C34.8249 14.14 34.8622 14.4936 34.9066 14.6815C34.9247 14.7629 34.9485 14.8482 34.9781 14.9367C35.0025 15.0135 35.0411 15.102 35.0804 15.1685C35.2722 15.4707 35.4298 15.7717 35.6306 15.97C35.6711 16.0075 35.713 16.0449 35.7496 16.0791C35.8005 16.1269 35.8455 16.1702 35.8842 16.198C35.9421 16.2458 35.9832 16.2664 35.9832 16.2677C36.0135 16.2832 36.0289 16.3129 36.0232 16.342C36.0161 16.371 35.9884 16.3917 35.9556 16.3911Z" fill="#222325"/>
</svg>
