<svg width="34" height="34" viewBox="0 0 34 34" fill="none" xmlns="http://www.w3.org/2000/svg">
<path d="M17 34C26.3888 34 34 26.3888 34 17C34 7.61116 26.3888 0 17 0C7.61116 0 0 7.61116 0 17C0 26.3888 7.61116 34 17 34Z" fill="#2B2B2B"/>
<path d="M24.4274 11.2861H9.57031L16.9989 17.405L24.5114 11.3033C24.484 11.2952 24.4559 11.2895 24.4274 11.2861Z" fill="white"/>
<path d="M17.3606 18.5844C17.15 18.7568 16.8471 18.7568 16.6366 18.5844L9 12.293V22.141C9 22.4566 9.25584 22.7124 9.57144 22.7124H24.4286C24.7442 22.7124 25 22.4566 25 22.141V12.3775L17.3606 18.5844Z" fill="white"/>
</svg>
