<svg width="128" height="128" viewBox="0 0 128 128" fill="none" xmlns="http://www.w3.org/2000/svg">
<path d="M64 124C97.1371 124 124 97.1371 124 64C124 30.8629 97.1371 4 64 4C30.8629 4 4 30.8629 4 64C4 97.1371 30.8629 124 64 124Z" fill="#79D1CA"/>
<path d="M64 126C98.2417 126 126 98.2417 126 64C126 29.7583 98.2417 2 64 2C29.7583 2 2 29.7583 2 64C2 98.2417 29.7583 126 64 126Z" stroke="white" stroke-width="4"/>
<g clip-path="url(#clip0)">
<path d="M86.0624 47.9772C85.1749 47.0896 83.7359 47.0896 82.8482 47.9772L55.6195 75.2062L45.1533 64.7399C44.2658 63.8523 42.8268 63.8524 41.9391 64.7399C41.0515 65.6274 41.0515 67.0664 41.9391 67.954L54.0125 80.0271C54.8997 80.9146 56.3397 80.914 57.2266 80.0271L86.0624 51.1914C86.95 50.3038 86.9499 48.8648 86.0624 47.9772Z" fill="white"/>
</g>
<defs>
<clipPath id="clip0">
<rect width="45.4545" height="45.4545" fill="white" transform="translate(41.2734 41.2734)"/>
</clipPath>
</defs>
</svg>
