<svg width="21" height="21" viewBox="0 0 21 21" fill="none" xmlns="http://www.w3.org/2000/svg">
<path d="M15.0852 7.40608L15.0852 7.40608C14.8425 7.16338 14.4488 7.16338 14.2061 7.40612L9.33659 12.2756L6.79503 9.73406C6.5523 9.49132 6.15868 9.49133 5.91591 9.73406C5.67313 9.97679 5.67314 10.3704 5.91591 10.6132L8.89701 13.5943C9.01839 13.7157 9.1776 13.7764 9.33656 13.7764C9.49552 13.7764 9.65476 13.7156 9.7761 13.5943L15.0852 8.28521C15.328 8.04247 15.328 7.64885 15.0852 7.40608Z" fill="#79D1CA" stroke="#79D1CA" stroke-width="0.13"/>
<path d="M17.2705 3.72943C15.4622 1.92109 13.0574 0.925 10.5 0.925C7.94253 0.925 5.53777 1.92109 3.72943 3.72943C1.92105 5.53781 0.925 7.94257 0.925 10.5C0.925 13.0574 1.92105 15.4622 3.72943 17.2705C5.53781 19.0789 7.94253 20.075 10.5 20.075C13.0574 20.075 15.4622 19.0789 17.2705 17.2705C19.0789 15.4622 20.075 13.0574 20.075 10.5C20.075 7.94257 19.0789 5.53784 17.2705 3.72943L17.2175 3.78246L17.2705 3.72943ZM10.5 18.8117C5.91696 18.8117 2.18828 15.083 2.18828 10.5C2.18828 5.91696 5.91696 2.18828 10.5 2.18828C15.083 2.18828 18.8117 5.91696 18.8117 10.5C18.8117 15.083 15.083 18.8117 10.5 18.8117Z" fill="#79D1CA" stroke="#79D1CA" stroke-width="0.15"/>
</svg>
