<svg width="34" height="34" viewBox="0 0 34 34" fill="none" xmlns="http://www.w3.org/2000/svg">
<path d="M17 34C26.3888 34 34 26.3888 34 17C34 7.61116 26.3888 0 17 0C7.61116 0 0 7.61116 0 17C0 26.3888 7.61116 34 17 34Z" fill="#2B2B2B"/>
<path d="M9.69844 15.3669L23.001 10.0649C23.6184 9.83432 24.1576 10.2206 23.9576 11.1857L23.9587 11.1845L21.6937 22.2151C21.5259 22.9972 21.0763 23.1874 20.4474 22.8189L16.9982 20.1911L15.3345 21.8479C15.1505 22.0381 14.9953 22.1985 14.6389 22.1985L14.8838 18.57L21.2764 12.6C21.5546 12.3469 21.2143 12.2042 20.8475 12.4562L12.9476 17.5977L9.54207 16.4995C8.80279 16.2571 8.78669 15.7353 9.69844 15.3669Z" fill="white"/>
</svg>
