<svg width="34" height="34" viewBox="0 0 34 34" fill="none" xmlns="http://www.w3.org/2000/svg">
<path d="M17 34C26.3888 34 34 26.3888 34 17C34 7.61116 26.3888 0 17 0C7.61116 0 0 7.61116 0 17C0 26.3888 7.61116 34 17 34Z" fill="#2B2B2B"/>
<path d="M26.4073 11.6787L26.4018 11.6562C25.9475 9.81991 23.8997 7.8495 22.0191 7.43958L21.9979 7.43519C18.9561 6.85494 15.8719 6.85494 12.8307 7.43519L12.8089 7.43958C10.9289 7.8495 8.88101 9.82004 8.4262 11.6562L8.42115 11.6787C7.85962 14.2431 7.85962 16.8438 8.42115 19.4082L8.4262 19.4307C8.86169 21.1886 10.757 23.0686 12.5674 23.5855V25.6354C12.5674 26.3773 13.4715 26.7417 13.9857 26.2062L16.0625 24.0474C16.513 24.0726 16.9637 24.0867 17.4143 24.0867C18.9454 24.0867 20.4773 23.9419 21.9978 23.6518L22.019 23.6474C23.8996 23.2375 25.9475 21.267 26.4017 19.4308L26.4073 19.4083C26.9688 16.8438 26.9688 14.2432 26.4073 11.6787ZM24.7637 19.0364C24.4604 20.2345 22.9056 21.7238 21.6702 21.999C20.0529 22.3066 18.4227 22.438 16.7941 22.3929C16.7617 22.392 16.7306 22.4046 16.7081 22.4279C16.4769 22.6651 15.1917 23.9846 15.1917 23.9846L13.5788 25.6399C13.4609 25.7629 13.2537 25.6792 13.2537 25.5095V22.1138C13.2537 22.0576 13.2136 22.01 13.1585 21.9991C13.1582 21.999 13.1579 21.999 13.1576 21.9989C11.9222 21.7238 10.3678 20.2344 10.064 19.0364C9.55862 16.7184 9.55862 14.3685 10.064 12.0506C10.3678 10.8525 11.9222 9.36317 13.1576 9.08798C15.9822 8.55075 18.8462 8.55075 21.6703 9.08798C22.9063 9.36317 24.4605 10.8525 24.7638 12.0506C25.2697 14.3686 25.2697 16.7185 24.7637 19.0364Z" fill="white"/>
<path d="M20.1006 20.6035C19.9107 20.5458 19.7297 20.5071 19.5615 20.4374C17.8196 19.7147 16.2166 18.7824 14.9468 17.3533C14.2247 16.5406 13.6595 15.6231 13.1818 14.6521C12.9552 14.1916 12.7643 13.7131 12.5697 13.2377C12.3923 12.8042 12.6536 12.3563 12.9288 12.0296C13.1871 11.723 13.5194 11.4885 13.8794 11.3155C14.1603 11.1805 14.4373 11.2584 14.6425 11.4964C15.086 12.0112 15.4934 12.5523 15.8232 13.149C16.0261 13.516 15.9704 13.9647 15.6027 14.2144C15.5133 14.2751 15.4319 14.3465 15.3487 14.415C15.2757 14.4751 15.207 14.5358 15.1569 14.6171C15.0655 14.7659 15.0611 14.9416 15.12 15.1034C15.5733 16.3493 16.3374 17.3181 17.5915 17.84C17.7922 17.9235 17.9937 18.0207 18.2249 17.9938C18.6121 17.9485 18.7374 17.5238 19.0088 17.3019C19.2739 17.0851 19.6129 17.0823 19.8985 17.263C20.1842 17.4439 20.4611 17.638 20.7365 17.8342C21.0067 18.0268 21.2757 18.215 21.525 18.4346C21.7647 18.6457 21.8472 18.9226 21.7122 19.2091C21.4652 19.7337 21.1056 20.1701 20.5871 20.4487C20.4406 20.5272 20.2657 20.5527 20.1006 20.6035C19.9107 20.5458 20.2657 20.5527 20.1006 20.6035Z" fill="white"/>
<path d="M17.4184 10.7162C19.6967 10.7801 21.5681 12.2921 21.9692 14.5446C22.0375 14.9284 22.0618 15.3208 22.0922 15.7104C22.105 15.8742 22.0122 16.0299 21.8354 16.0321C21.6528 16.0342 21.5707 15.8814 21.5587 15.7177C21.5353 15.3935 21.519 15.0678 21.4743 14.7464C21.2385 13.0491 19.8851 11.6449 18.1958 11.3436C17.9415 11.2983 17.6814 11.2864 17.4239 11.2594C17.2611 11.2423 17.0479 11.2325 17.0119 11.0301C16.9817 10.8604 17.1248 10.7253 17.2864 10.7166C17.3302 10.714 17.3743 10.7161 17.4184 10.7162C19.6969 10.7801 17.3743 10.7161 17.4184 10.7162Z" fill="white"/>
<path d="M20.8805 15.2052C20.8767 15.2337 20.8748 15.3005 20.8581 15.3635C20.7976 15.5922 20.4507 15.6208 20.371 15.3901C20.3473 15.3216 20.3437 15.2436 20.3436 15.1699C20.3428 14.6874 20.238 14.2053 19.9946 13.7854C19.7444 13.3538 19.3622 12.9912 18.914 12.7716C18.6429 12.6389 18.3499 12.5564 18.0528 12.5073C17.923 12.4858 17.7917 12.4728 17.6613 12.4546C17.5031 12.4327 17.4187 12.3319 17.4262 12.1761C17.4332 12.0302 17.5399 11.925 17.699 11.9341C18.2219 11.9638 18.7269 12.0769 19.1919 12.323C20.1371 12.8237 20.6771 13.6138 20.8348 14.6689C20.8419 14.7168 20.8533 14.764 20.8569 14.812C20.8658 14.9303 20.8715 15.0489 20.8805 15.2052C20.8767 15.2335 20.8715 15.0489 20.8805 15.2052Z" fill="white"/>
<path d="M19.4649 15.148C19.2743 15.1515 19.1723 15.0459 19.1526 14.8712C19.139 14.7495 19.1281 14.6259 19.099 14.5073C19.0418 14.2738 18.9176 14.0574 18.7212 13.9143C18.6285 13.8468 18.5234 13.7976 18.4134 13.7657C18.2736 13.7253 18.1283 13.7364 17.9889 13.7023C17.8374 13.6652 17.7536 13.5425 17.7775 13.4004C17.7991 13.2711 17.9249 13.1701 18.0663 13.1804C18.9496 13.2442 19.5809 13.7008 19.671 14.7408C19.6775 14.8141 19.6849 14.8916 19.6686 14.962C19.6406 15.082 19.5516 15.1422 19.4649 15.148C19.2743 15.1514 19.5516 15.1422 19.4649 15.148Z" fill="white"/>
<path d="M26.4058 11.6767L26.4003 11.6542C26.1457 10.6249 25.3901 9.55348 24.4441 8.73828L23.1651 9.8717C23.9256 10.4777 24.5772 11.3171 24.7624 12.0485C25.2684 14.3665 25.2684 16.7163 24.7624 19.0344C24.4591 20.2325 22.9042 21.7218 21.6688 21.997C20.0515 22.3046 18.4213 22.436 16.7927 22.3909C16.7603 22.39 16.7292 22.4026 16.7067 22.4259C16.4755 22.6631 15.1903 23.9826 15.1903 23.9826L13.5774 25.6379C13.4595 25.7609 13.2523 25.6773 13.2523 25.5075V22.1118C13.2523 22.0557 13.2122 22.008 13.1571 21.9972C13.1568 21.9972 13.1565 21.997 13.1562 21.997C12.4541 21.8406 11.6493 21.2919 11.0293 20.6277L9.76562 21.7475C10.5549 22.606 11.5728 23.3001 12.5658 23.5837V25.6335C12.5658 26.3754 13.47 26.7398 13.9841 26.2044L16.0609 24.0456C16.5114 24.0708 16.962 24.0848 17.4127 24.0848C18.9438 24.0848 20.4757 23.94 21.9963 23.6499L22.0174 23.6456C23.8981 23.2357 25.9459 21.2653 26.4001 19.429L26.4057 19.4065C26.9673 16.8418 26.9673 14.2412 26.4058 11.6767Z" fill="white"/>
<path d="M20.1005 20.6037C20.2656 20.5529 19.9106 20.546 20.1005 20.6037V20.6037Z" fill="#333333"/>
<path d="M21.5248 18.4325C21.2756 18.213 21.0064 18.0246 20.7363 17.8321C20.461 17.6358 20.1841 17.4418 19.8983 17.2609C19.6127 17.0801 19.2738 17.083 19.0086 17.2998C18.7373 17.5217 18.612 17.9464 18.2247 17.9916C17.9936 18.0185 17.792 17.9213 17.5914 17.8379C16.8198 17.5169 16.2343 17.026 15.7919 16.4062L14.8516 17.2396C14.8835 17.2766 14.914 17.3146 14.9465 17.3511C16.2163 18.7803 17.8194 19.7126 19.5612 20.4353C19.7292 20.505 19.9103 20.5438 20.1002 20.6014C19.9103 20.5437 20.2655 20.5506 20.1002 20.6014C20.2655 20.5506 20.4402 20.525 20.5868 20.4465C21.1055 20.1679 21.465 19.7315 21.712 19.2069C21.8471 18.9205 21.7645 18.6436 21.5248 18.4325Z" fill="white"/>
<path d="M17.4247 10.7151C17.4226 10.7151 17.4207 10.7149 17.4186 10.7149C17.4167 10.7148 17.4192 10.7149 17.4247 10.7151Z" fill="#333333"/>
<path d="M17.418 10.7148C17.4199 10.7148 17.4218 10.715 17.4237 10.715C17.5501 10.7196 19.6066 10.7762 17.418 10.7148Z" fill="#333333"/>
<path d="M20.6861 12.0708L20.2852 12.4261C20.9152 13.0391 21.3496 13.8514 21.4738 14.7454C21.5184 15.0669 21.5348 15.3925 21.5582 15.7167C21.5701 15.8805 21.6522 16.0333 21.8349 16.0312C22.0118 16.029 22.1046 15.8734 22.0917 15.7095C22.0613 15.32 22.037 14.9275 21.9687 14.5438C21.7932 13.5578 21.3358 12.7137 20.6861 12.0708Z" fill="white"/>
<path d="M20.836 14.6677C20.7212 13.8989 20.4022 13.2714 19.8724 12.7935L19.4727 13.1477C19.6794 13.3312 19.8582 13.5467 19.9959 13.7844C20.2393 14.2043 20.3442 14.6864 20.345 15.1689C20.3451 15.2426 20.3486 15.3205 20.3723 15.3891C20.4522 15.62 20.799 15.5914 20.8594 15.3626C20.8762 15.2995 20.8781 15.2326 20.8819 15.2043C20.8781 15.2328 20.8727 15.048 20.8819 15.2043C20.8727 15.048 20.8671 14.9294 20.8582 14.8109C20.8546 14.7628 20.8432 14.7155 20.836 14.6677Z" fill="white"/>
<path d="M20.88 15.2047C20.871 15.0484 20.8762 15.2331 20.88 15.2047V15.2047Z" fill="#333333"/>
<path d="M19.462 15.15C19.4651 15.1498 19.4679 15.1483 19.4708 15.1479C19.4627 15.1479 19.4503 15.1482 19.4375 15.1486C19.4458 15.1488 19.4533 15.1501 19.462 15.15Z" fill="#333333"/>
<path d="M19.463 15.1508C19.4544 15.1509 19.4468 15.1497 19.4386 15.1494C19.3973 15.1505 19.3548 15.1527 19.463 15.1508Z" fill="#333333"/>
<path d="M19.4736 15.1479C19.4706 15.1483 19.4677 15.1498 19.4648 15.15C19.4873 15.1485 19.4854 15.1479 19.4736 15.1479Z" fill="#333333"/>
<path d="M19.0632 13.5117L18.6562 13.8724C18.6787 13.8861 18.7007 13.9003 18.722 13.9157C18.9184 14.0588 19.0425 14.2752 19.0998 14.5087C19.1289 14.6273 19.1396 14.7507 19.1534 14.8726C19.1722 15.0395 19.2669 15.1421 19.4413 15.1481C19.454 15.1478 19.4665 15.1475 19.4744 15.1474C19.5583 15.1381 19.6425 15.0793 19.6694 14.9632C19.6856 14.893 19.6782 14.8154 19.6717 14.742C19.6211 14.1606 19.4013 13.7617 19.0632 13.5117Z" fill="white"/>
</svg>
