<svg width="34" height="34" viewBox="0 0 34 34" fill="none" xmlns="http://www.w3.org/2000/svg">
<circle cx="17" cy="17" r="17" fill="url(#paint0_linear)"/>
<path d="M25.5624 21.1424C25.5147 21.0615 25.2201 20.4125 23.8024 19.0786C22.3182 17.6817 22.5176 17.9085 24.3052 15.4933C25.394 14.0224 25.8293 13.1241 25.693 12.7401C25.5635 12.374 24.7627 12.4706 24.7627 12.4706L22.1 12.4863C22.1 12.4863 21.9028 12.4593 21.7555 12.548C21.6127 12.6356 21.5207 12.8377 21.5207 12.8377C21.5207 12.8377 21.0987 13.9763 20.5361 14.9442C19.3498 16.9867 18.8747 17.0945 18.6808 16.9676C18.23 16.6723 18.343 15.7796 18.343 15.1463C18.343 13.1667 18.6387 12.3414 17.766 12.1281C17.4758 12.0574 17.2631 12.0102 16.5221 12.0023C15.5718 11.9922 14.7666 12.0057 14.3114 12.2314C14.0079 12.3819 13.7742 12.7176 13.917 12.7367C14.0932 12.7603 14.4919 12.8456 14.7034 13.1375C14.977 13.5137 14.9671 14.3603 14.9671 14.3603C14.9671 14.3603 15.1243 16.6902 14.6004 16.9799C14.2405 17.1787 13.7476 16.7733 12.6898 14.9195C12.1482 13.9707 11.7384 12.9208 11.7384 12.9208C11.7384 12.9208 11.6598 12.7255 11.5191 12.621C11.3485 12.4942 11.1093 12.4537 11.1093 12.4537L8.57731 12.4694C8.57731 12.4694 8.1974 12.4807 8.05784 12.648C7.93379 12.7973 8.04787 13.105 8.04787 13.105C8.04787 13.105 10.0305 17.8064 12.2745 20.1767C14.3335 22.3494 16.6705 22.2068 16.6705 22.2068H17.7294C17.7294 22.2068 18.0495 22.1709 18.2123 21.9924C18.363 21.8284 18.3574 21.5208 18.3574 21.5208C18.3574 21.5208 18.3364 20.0801 18.9965 19.8679C19.6467 19.6591 20.4818 21.2603 21.3668 21.8767C22.0358 22.3427 22.5441 22.2405 22.5441 22.2405L24.9111 22.2068C24.9111 22.2068 26.1494 22.1293 25.5624 21.1424Z" fill="white"/>
<defs>
<linearGradient id="paint0_linear" x1="17" y1="0" x2="17" y2="34" gradientUnits="userSpaceOnUse">
<stop stop-color="#2B2B2B"/>
</linearGradient>
</defs>
</svg>
