<svg width="52" height="52" viewBox="0 0 52 52" fill="none" xmlns="http://www.w3.org/2000/svg">
<g filter="url(#filter0_d)">
<path d="M25 41C34.3888 41 42 33.3888 42 24C42 14.6112 34.3888 7 25 7C15.6112 7 8 14.6112 8 24C8 33.3888 15.6112 41 25 41Z" fill="#2B2B2B"/>
<g clip-path="url(#clip0)">
<path d="M32.9797 20.704C32.9422 19.8539 32.8047 19.2694 32.6078 18.763C32.4046 18.2254 32.092 17.7441 31.6825 17.344C31.2824 16.9377 30.798 16.6219 30.2666 16.422C29.7572 16.225 29.1758 16.0875 28.3257 16.0501C27.4692 16.0094 27.1973 16 25.025 16C22.8527 16 22.5808 16.0094 21.7275 16.0469C20.8773 16.0844 20.2929 16.222 19.7865 16.4188C19.2488 16.6219 18.7676 16.9345 18.3674 17.344C17.9611 17.7441 17.6455 18.2286 17.4454 18.7599C17.2485 19.2694 17.111 19.8507 17.0735 20.7009C17.0328 21.5574 17.0234 21.8293 17.0234 24.0016C17.0234 26.1739 17.0328 26.4458 17.0703 27.2991C17.1078 28.1492 17.2454 28.7337 17.4423 29.2401C17.6455 29.7777 17.9611 30.259 18.3674 30.6591C18.7676 31.0654 19.252 31.3812 19.7834 31.5812C20.2929 31.7781 20.8742 31.9156 21.7244 31.9531C22.5776 31.9907 22.8496 32 25.0219 32C27.1942 32 27.4661 31.9907 28.3195 31.9531C29.1696 31.9156 29.7541 31.7781 30.2604 31.5812C31.3357 31.1654 32.1858 30.3153 32.6015 29.2401C32.7984 28.7306 32.936 28.1492 32.9734 27.2991C33.0109 26.4458 33.0203 26.1739 33.0203 24.0016C33.0203 21.8293 33.0172 21.5574 32.9797 20.704ZM31.5388 27.2366C31.5044 28.018 31.3732 28.4399 31.2638 28.7212C30.9949 29.4183 30.4417 29.9715 29.7447 30.2403C29.4634 30.3497 29.0384 30.481 28.26 30.5153C27.4161 30.5529 27.163 30.5622 25.0282 30.5622C22.8934 30.5622 22.6371 30.5529 21.7962 30.5153C21.0148 30.481 20.5929 30.3497 20.3116 30.2403C19.9647 30.1121 19.6489 29.909 19.3927 29.6433C19.127 29.3838 18.9238 29.0713 18.7956 28.7244C18.6862 28.4431 18.555 28.018 18.5207 27.2397C18.4831 26.3958 18.4738 26.1426 18.4738 24.0078C18.4738 21.873 18.4831 21.6167 18.5207 20.776C18.555 19.9946 18.6862 19.5726 18.7956 19.2913C18.9238 18.9443 19.127 18.6287 19.3958 18.3723C19.6552 18.1066 19.9677 17.9034 20.3147 17.7754C20.596 17.666 21.0212 17.5347 21.7994 17.5003C22.6433 17.4628 22.8965 17.4534 25.0312 17.4534C27.1692 17.4534 27.4223 17.4628 28.2632 17.5003C29.0446 17.5347 29.4665 17.666 29.7478 17.7754C30.0947 17.9034 30.4104 18.1066 30.6667 18.3723C30.9324 18.6317 31.1356 18.9443 31.2638 19.2913C31.3732 19.5726 31.5044 19.9976 31.5388 20.776C31.5763 21.6199 31.5857 21.873 31.5857 24.0078C31.5857 26.1426 31.5763 26.3927 31.5388 27.2366Z" fill="#E1CEF5"/>
<path d="M25.0321 19.8906C22.7629 19.8906 20.9219 21.7316 20.9219 24.0008C20.9219 26.27 22.7629 28.111 25.0321 28.111C27.3013 28.111 29.1422 26.27 29.1422 24.0008C29.1422 21.7316 27.3013 19.8906 25.0321 19.8906ZM25.0321 26.667C23.56 26.667 22.3659 25.473 22.3659 24.0008C22.3659 22.5286 23.56 21.3346 25.0321 21.3346C26.5043 21.3346 27.6982 22.5286 27.6982 24.0008C27.6982 25.473 26.5043 26.667 25.0321 26.667Z" fill="#E1CEF5"/>
<path d="M30.259 19.7291C30.259 20.259 29.8294 20.6886 29.2994 20.6886C28.7695 20.6886 28.3398 20.259 28.3398 19.7291C28.3398 19.1991 28.7695 18.7695 29.2994 18.7695C29.8294 18.7695 30.259 19.1991 30.259 19.7291Z" fill="#E1CEF5"/>
</g>
</g>
<defs>
<filter id="filter0_d" x="0" y="0" width="52" height="52" filterUnits="userSpaceOnUse" color-interpolation-filters="sRGB">
<feFlood flood-opacity="0" result="BackgroundImageFix"/>
<feColorMatrix in="SourceAlpha" type="matrix" values="0 0 0 0 0 0 0 0 0 0 0 0 0 0 0 0 0 0 127 0"/>
<feOffset dx="1" dy="2"/>
<feGaussianBlur stdDeviation="4.5"/>
<feColorMatrix type="matrix" values="0 0 0 0 0 0 0 0 0 0 0 0 0 0 0 0 0 0 0.16 0"/>
<feBlend mode="normal" in2="BackgroundImageFix" result="effect1_dropShadow"/>
<feBlend mode="normal" in="SourceGraphic" in2="effect1_dropShadow" result="shape"/>
</filter>
<clipPath id="clip0">
<rect width="16" height="16" fill="white" transform="translate(17 16)"/>
</clipPath>
</defs>
</svg>
