<svg width="52" height="52" viewBox="0 0 52 52" fill="none" xmlns="http://www.w3.org/2000/svg">
<g filter="url(#filter0_d)">
<path d="M25 41C34.3888 41 42 33.3888 42 24C42 14.6112 34.3888 7 25 7C15.6112 7 8 14.6112 8 24C8 33.3888 15.6112 41 25 41Z" fill="#2B2B2B"/>
<path d="M32.4279 18.2859H17.5708L24.9994 24.4047L32.5119 18.303C32.4844 18.295 32.4563 18.2893 32.4279 18.2859Z" fill="#E1CEF5"/>
<path d="M25.3606 25.5844C25.15 25.7568 24.8471 25.7568 24.6366 25.5844L17 19.293V29.141C17 29.4566 17.2558 29.7124 17.5714 29.7124H32.4286C32.7442 29.7124 33 29.4566 33 29.141V19.3775L25.3606 25.5844Z" fill="#E1CEF5"/>
</g>
<defs>
<filter id="filter0_d" x="0" y="0" width="52" height="52" filterUnits="userSpaceOnUse" color-interpolation-filters="sRGB">
<feFlood flood-opacity="0" result="BackgroundImageFix"/>
<feColorMatrix in="SourceAlpha" type="matrix" values="0 0 0 0 0 0 0 0 0 0 0 0 0 0 0 0 0 0 127 0"/>
<feOffset dx="1" dy="2"/>
<feGaussianBlur stdDeviation="4.5"/>
<feColorMatrix type="matrix" values="0 0 0 0 0 0 0 0 0 0 0 0 0 0 0 0 0 0 0.16 0"/>
<feBlend mode="normal" in2="BackgroundImageFix" result="effect1_dropShadow"/>
<feBlend mode="normal" in="SourceGraphic" in2="effect1_dropShadow" result="shape"/>
</filter>
</defs>
</svg>
