<svg width="52" height="52" viewBox="0 0 52 52" fill="none" xmlns="http://www.w3.org/2000/svg">
<g filter="url(#filter0_d)">
<path d="M25 41C34.3888 41 42 33.3888 42 24C42 14.6112 34.3888 7 25 7C15.6112 7 8 14.6112 8 24C8 33.3888 15.6112 41 25 41Z" fill="#2B2B2B"/>
<path d="M17.6984 22.3669L31.001 17.0649C31.6184 16.8343 32.1576 17.2206 31.9576 18.1857L31.9587 18.1845L29.6937 29.2151C29.5259 29.9972 29.0763 30.1874 28.4474 29.8189L24.9982 27.1911L23.3345 28.8479C23.1505 29.0381 22.9953 29.1985 22.6389 29.1985L22.8838 25.57L29.2764 19.6C29.5546 19.3469 29.2143 19.2042 28.8475 19.4562L20.9476 24.5977L17.5421 23.4995C16.8028 23.2571 16.7867 22.7353 17.6984 22.3669Z" fill="#E1CEF5"/>
</g>
<defs>
<filter id="filter0_d" x="0" y="0" width="52" height="52" filterUnits="userSpaceOnUse" color-interpolation-filters="sRGB">
<feFlood flood-opacity="0" result="BackgroundImageFix"/>
<feColorMatrix in="SourceAlpha" type="matrix" values="0 0 0 0 0 0 0 0 0 0 0 0 0 0 0 0 0 0 127 0"/>
<feOffset dx="1" dy="2"/>
<feGaussianBlur stdDeviation="4.5"/>
<feColorMatrix type="matrix" values="0 0 0 0 0 0 0 0 0 0 0 0 0 0 0 0 0 0 0.16 0"/>
<feBlend mode="normal" in2="BackgroundImageFix" result="effect1_dropShadow"/>
<feBlend mode="normal" in="SourceGraphic" in2="effect1_dropShadow" result="shape"/>
</filter>
</defs>
</svg>
