<svg width="52" height="52" viewBox="0 0 52 52" fill="none" xmlns="http://www.w3.org/2000/svg">
<g filter="url(#filter0_d)">
<path d="M25 41C34.3888 41 42 33.3888 42 24C42 14.6112 34.3888 7 25 7C15.6112 7 8 14.6112 8 24C8 33.3888 15.6112 41 25 41Z" fill="#2B2B2B"/>
<path d="M34.4073 18.6787L34.4018 18.6562C33.9475 16.8199 31.8997 14.8495 30.0191 14.4396L29.9979 14.4352C26.9561 13.8549 23.8719 13.8549 20.8307 14.4352L20.8089 14.4396C18.9289 14.8495 16.881 16.82 16.4262 18.6562L16.4211 18.6787C15.8596 21.2431 15.8596 23.8438 16.4211 26.4082L16.4262 26.4307C16.8617 28.1886 18.757 30.0686 20.5674 30.5855V32.6354C20.5674 33.3773 21.4715 33.7417 21.9857 33.2062L24.0625 31.0474C24.513 31.0726 24.9637 31.0867 25.4143 31.0867C26.9454 31.0867 28.4773 30.9419 29.9978 30.6518L30.019 30.6474C31.8996 30.2375 33.9475 28.267 34.4017 26.4308L34.4073 26.4083C34.9688 23.8438 34.9688 21.2432 34.4073 18.6787ZM32.7637 26.0364C32.4604 27.2345 30.9056 28.7238 29.6702 28.999C28.0529 29.3066 26.4227 29.438 24.7941 29.3929C24.7617 29.392 24.7306 29.4046 24.7081 29.4279C24.4769 29.6651 23.1917 30.9846 23.1917 30.9846L21.5788 32.6399C21.4609 32.7629 21.2537 32.6792 21.2537 32.5095V29.1138C21.2537 29.0576 21.2136 29.01 21.1585 28.9991C21.1582 28.999 21.1579 28.999 21.1576 28.9989C19.9222 28.7238 18.3678 27.2344 18.064 26.0364C17.5586 23.7184 17.5586 21.3685 18.064 19.0506C18.3678 17.8525 19.9222 16.3632 21.1576 16.088C23.9822 15.5508 26.8462 15.5508 29.6703 16.088C30.9063 16.3632 32.4605 17.8525 32.7638 19.0506C33.2697 21.3686 33.2697 23.7185 32.7637 26.0364Z" fill="#E1CEF5"/>
<path d="M28.1006 27.6035C27.9107 27.5458 27.7297 27.5071 27.5615 27.4374C25.8196 26.7147 24.2166 25.7824 22.9468 24.3533C22.2247 23.5406 21.6595 22.6231 21.1818 21.6521C20.9552 21.1916 20.7643 20.7131 20.5697 20.2377C20.3923 19.8042 20.6536 19.3563 20.9288 19.0296C21.1871 18.723 21.5194 18.4885 21.8794 18.3155C22.1603 18.1805 22.4373 18.2584 22.6425 18.4964C23.086 19.0112 23.4934 19.5523 23.8232 20.149C24.0261 20.516 23.9704 20.9647 23.6027 21.2144C23.5133 21.2751 23.4319 21.3465 23.3487 21.415C23.2757 21.4751 23.207 21.5358 23.1569 21.6171C23.0655 21.7659 23.0611 21.9416 23.12 22.1034C23.5733 23.3493 24.3374 24.3181 25.5915 24.84C25.7922 24.9235 25.9937 25.0207 26.2249 24.9938C26.6121 24.9485 26.7374 24.5238 27.0088 24.3019C27.2739 24.0851 27.6129 24.0823 27.8985 24.263C28.1842 24.4439 28.4611 24.638 28.7365 24.8342C29.0067 25.0268 29.2757 25.215 29.525 25.4346C29.7647 25.6457 29.8472 25.9226 29.7122 26.2091C29.4652 26.7337 29.1056 27.1701 28.5871 27.4487C28.4406 27.5272 28.2657 27.5527 28.1006 27.6035C27.9107 27.5458 28.2657 27.5527 28.1006 27.6035Z" fill="#E1CEF5"/>
<path d="M25.4189 17.7165C27.6972 17.7804 29.5686 19.2924 29.9697 21.5449C30.038 21.9287 30.0623 22.321 30.0927 22.7106C30.1055 22.8744 30.0127 23.0301 29.8359 23.0323C29.6533 23.0345 29.5712 22.8816 29.5592 22.7179C29.5358 22.3937 29.5195 22.068 29.4748 21.7466C29.239 20.0493 27.8856 18.6452 26.1963 18.3439C25.942 18.2985 25.6819 18.2866 25.4243 18.2596C25.2616 18.2425 25.0484 18.2327 25.0124 18.0303C24.9821 17.8606 25.1253 17.7256 25.2869 17.7169C25.3306 17.7143 25.3748 17.7163 25.4189 17.7165C27.6974 17.7804 25.3748 17.7163 25.4189 17.7165Z" fill="#E1CEF5"/>
<path d="M28.8805 22.2052C28.8767 22.2337 28.8748 22.3005 28.8581 22.3635C28.7976 22.5922 28.4507 22.6208 28.371 22.3901C28.3473 22.3216 28.3437 22.2436 28.3436 22.1699C28.3428 21.6874 28.238 21.2053 27.9946 20.7854C27.7444 20.3538 27.3622 19.9912 26.914 19.7716C26.6429 19.6389 26.3499 19.5564 26.0528 19.5073C25.923 19.4858 25.7917 19.4728 25.6613 19.4546C25.5031 19.4327 25.4187 19.3319 25.4262 19.1761C25.4332 19.0302 25.5399 18.925 25.699 18.9341C26.2219 18.9638 26.7269 19.0769 27.1919 19.323C28.1371 19.8237 28.6771 20.6138 28.8348 21.6689C28.8419 21.7168 28.8533 21.764 28.8569 21.812C28.8658 21.9303 28.8715 22.0489 28.8805 22.2052C28.8767 22.2335 28.8715 22.0489 28.8805 22.2052Z" fill="#E1CEF5"/>
<path d="M27.4649 22.148C27.2743 22.1515 27.1723 22.0459 27.1526 21.8712C27.139 21.7495 27.1281 21.6259 27.099 21.5073C27.0418 21.2738 26.9176 21.0574 26.7212 20.9143C26.6285 20.8468 26.5234 20.7976 26.4134 20.7657C26.2736 20.7253 26.1283 20.7364 25.9889 20.7023C25.8374 20.6652 25.7536 20.5425 25.7775 20.4004C25.7991 20.2711 25.9249 20.1701 26.0663 20.1804C26.9496 20.2442 27.5809 20.7008 27.671 21.7408C27.6775 21.8141 27.6849 21.8916 27.6686 21.962C27.6406 22.082 27.5516 22.1422 27.4649 22.148C27.2743 22.1514 27.5516 22.1422 27.4649 22.148Z" fill="#E1CEF5"/>
<path d="M34.4058 18.6767L34.4003 18.6542C34.1457 17.6249 33.3901 16.5535 32.4441 15.7383L31.1651 16.8717C31.9256 17.4777 32.5772 18.3171 32.7624 19.0485C33.2684 21.3665 33.2684 23.7163 32.7624 26.0344C32.4591 27.2325 30.9042 28.7218 29.6688 28.997C28.0515 29.3046 26.4213 29.436 24.7927 29.3909C24.7603 29.39 24.7292 29.4026 24.7067 29.4259C24.4755 29.6631 23.1903 30.9826 23.1903 30.9826L21.5774 32.6379C21.4595 32.7609 21.2523 32.6773 21.2523 32.5075V29.1118C21.2523 29.0557 21.2122 29.008 21.1571 28.9972C21.1568 28.9972 21.1565 28.997 21.1562 28.997C20.4541 28.8406 19.6493 28.2919 19.0293 27.6277L17.7656 28.7475C18.5549 29.606 19.5728 30.3001 20.5658 30.5837V32.6335C20.5658 33.3754 21.47 33.7398 21.9841 33.2044L24.0609 31.0456C24.5114 31.0708 24.962 31.0848 25.4127 31.0848C26.9438 31.0848 28.4757 30.94 29.9963 30.6499L30.0174 30.6456C31.8981 30.2357 33.9459 28.2653 34.4001 26.429L34.4057 26.4065C34.9673 23.8418 34.9673 21.2412 34.4058 18.6767Z" fill="#E1CEF5"/>
<path d="M28.1005 27.6037C28.2656 27.5529 27.9106 27.546 28.1005 27.6037V27.6037Z" fill="#333333"/>
<path d="M29.5248 25.4325C29.2756 25.213 29.0064 25.0246 28.7363 24.8321C28.461 24.6358 28.1841 24.4418 27.8983 24.2609C27.6127 24.0801 27.2738 24.083 27.0086 24.2998C26.7373 24.5217 26.612 24.9464 26.2247 24.9916C25.9936 25.0185 25.792 24.9213 25.5914 24.8379C24.8198 24.5169 24.2343 24.026 23.7919 23.4062L22.8516 24.2396C22.8835 24.2766 22.914 24.3146 22.9465 24.3511C24.2163 25.7803 25.8194 26.7126 27.5612 27.4353C27.7292 27.505 27.9103 27.5438 28.1002 27.6014C27.9103 27.5437 28.2655 27.5506 28.1002 27.6014C28.2655 27.5506 28.4402 27.525 28.5868 27.4465C29.1055 27.1679 29.465 26.7315 29.712 26.2069C29.8471 25.9205 29.7645 25.6436 29.5248 25.4325Z" fill="#E1CEF5"/>
<path d="M25.4247 17.7154C25.4226 17.7154 25.4207 17.7151 25.4186 17.7151C25.4167 17.715 25.4192 17.7151 25.4247 17.7154Z" fill="#333333"/>
<path d="M25.4187 17.7148C25.4206 17.7148 25.4225 17.715 25.4244 17.715C25.5508 17.7196 27.6073 17.7762 25.4187 17.7148Z" fill="#333333"/>
<path d="M28.6861 19.0708L28.2852 19.4261C28.9152 20.0391 29.3496 20.8514 29.4738 21.7454C29.5184 22.0669 29.5348 22.3925 29.5582 22.7167C29.5701 22.8805 29.6522 23.0333 29.8349 23.0312C30.0118 23.029 30.1046 22.8734 30.0917 22.7095C30.0613 22.32 30.037 21.9275 29.9687 21.5438C29.7932 20.5578 29.3358 19.7137 28.6861 19.0708Z" fill="#E1CEF5"/>
<path d="M28.836 21.668C28.7212 20.8991 28.4022 20.2717 27.8724 19.7937L27.4727 20.148C27.6794 20.3315 27.8582 20.5469 27.9959 20.7846C28.2393 21.2045 28.3442 21.6866 28.345 22.1691C28.3451 22.2428 28.3486 22.3208 28.3723 22.3894C28.4522 22.6203 28.799 22.5917 28.8594 22.3628C28.8762 22.2997 28.8781 22.2329 28.8819 22.2045C28.8781 22.233 28.8727 22.0483 28.8819 22.2045C28.8727 22.0483 28.8671 21.9297 28.8582 21.8112C28.8546 21.763 28.8432 21.7158 28.836 21.668Z" fill="#E1CEF5"/>
<path d="M28.88 22.2047C28.871 22.0484 28.8762 22.2331 28.88 22.2047V22.2047Z" fill="#333333"/>
<path d="M27.462 22.15C27.4651 22.1498 27.4679 22.1483 27.4708 22.1479C27.4627 22.1479 27.4503 22.1482 27.4375 22.1486C27.4458 22.1488 27.4533 22.1501 27.462 22.15Z" fill="#333333"/>
<path d="M27.463 22.1508C27.4544 22.1509 27.4468 22.1497 27.4386 22.1494C27.3973 22.1505 27.3548 22.1527 27.463 22.1508Z" fill="#333333"/>
<path d="M27.4736 22.1479C27.4706 22.1483 27.4677 22.1498 27.4648 22.15C27.4873 22.1485 27.4854 22.1479 27.4736 22.1479Z" fill="#333333"/>
<path d="M27.0632 20.5115L26.6562 20.8722C26.6787 20.8858 26.7007 20.9 26.722 20.9155C26.9184 21.0586 27.0425 21.2749 27.0998 21.5085C27.1289 21.6271 27.1396 21.7505 27.1534 21.8724C27.1722 22.0393 27.2669 22.1419 27.4413 22.1479C27.454 22.1475 27.4665 22.1473 27.4744 22.1472C27.5583 22.1379 27.6425 22.0791 27.6694 21.963C27.6856 21.8928 27.6782 21.8152 27.6717 21.7418C27.6211 21.1604 27.4013 20.7615 27.0632 20.5115Z" fill="#E1CEF5"/>
</g>
<defs>
<filter id="filter0_d" x="0" y="0" width="52" height="52" filterUnits="userSpaceOnUse" color-interpolation-filters="sRGB">
<feFlood flood-opacity="0" result="BackgroundImageFix"/>
<feColorMatrix in="SourceAlpha" type="matrix" values="0 0 0 0 0 0 0 0 0 0 0 0 0 0 0 0 0 0 127 0"/>
<feOffset dx="1" dy="2"/>
<feGaussianBlur stdDeviation="4.5"/>
<feColorMatrix type="matrix" values="0 0 0 0 0 0 0 0 0 0 0 0 0 0 0 0 0 0 0.16 0"/>
<feBlend mode="normal" in2="BackgroundImageFix" result="effect1_dropShadow"/>
<feBlend mode="normal" in="SourceGraphic" in2="effect1_dropShadow" result="shape"/>
</filter>
</defs>
</svg>
