<svg width="52" height="52" viewBox="0 0 52 52" fill="none" xmlns="http://www.w3.org/2000/svg">
<g filter="url(#filter0_d)">
<circle cx="25" cy="24" r="17" fill="url(#paint0_linear)"/>
<path d="M33.5624 28.1424C33.5147 28.0615 33.2201 27.4125 31.8024 26.0786C30.3182 24.6817 30.5176 24.9085 32.3052 22.4933C33.394 21.0224 33.8293 20.1241 33.693 19.7401C33.5635 19.374 32.7627 19.4706 32.7627 19.4706L30.1 19.4863C30.1 19.4863 29.9028 19.4593 29.7555 19.548C29.6127 19.6356 29.5207 19.8377 29.5207 19.8377C29.5207 19.8377 29.0987 20.9763 28.5361 21.9442C27.3498 23.9867 26.8747 24.0945 26.6808 23.9676C26.23 23.6723 26.343 22.7796 26.343 22.1463C26.343 20.1667 26.6387 19.3414 25.766 19.1281C25.4758 19.0574 25.2631 19.0102 24.5221 19.0023C23.5718 18.9922 22.7666 19.0057 22.3114 19.2314C22.0079 19.3819 21.7742 19.7176 21.917 19.7367C22.0932 19.7603 22.4919 19.8456 22.7034 20.1375C22.977 20.5137 22.9671 21.3603 22.9671 21.3603C22.9671 21.3603 23.1243 23.6902 22.6004 23.9799C22.2405 24.1787 21.7476 23.7733 20.6898 21.9195C20.1482 20.9707 19.7384 19.9208 19.7384 19.9208C19.7384 19.9208 19.6598 19.7255 19.5191 19.621C19.3485 19.4942 19.1093 19.4537 19.1093 19.4537L16.5773 19.4694C16.5773 19.4694 16.1974 19.4807 16.0578 19.648C15.9338 19.7973 16.0479 20.105 16.0479 20.105C16.0479 20.105 18.0305 24.8064 20.2745 27.1767C22.3335 29.3494 24.6705 29.2068 24.6705 29.2068H25.7294C25.7294 29.2068 26.0495 29.1709 26.2123 28.9924C26.363 28.8284 26.3574 28.5208 26.3574 28.5208C26.3574 28.5208 26.3364 27.0801 26.9965 26.8679C27.6467 26.6591 28.4818 28.2603 29.3668 28.8767C30.0358 29.3427 30.5441 29.2405 30.5441 29.2405L32.9111 29.2068C32.9111 29.2068 34.1494 29.1293 33.5624 28.1424Z" fill="#E1CEF5"/>
</g>
<defs>
<filter id="filter0_d" x="0" y="0" width="52" height="52" filterUnits="userSpaceOnUse" color-interpolation-filters="sRGB">
<feFlood flood-opacity="0" result="BackgroundImageFix"/>
<feColorMatrix in="SourceAlpha" type="matrix" values="0 0 0 0 0 0 0 0 0 0 0 0 0 0 0 0 0 0 127 0"/>
<feOffset dx="1" dy="2"/>
<feGaussianBlur stdDeviation="4.5"/>
<feColorMatrix type="matrix" values="0 0 0 0 0 0 0 0 0 0 0 0 0 0 0 0 0 0 0.16 0"/>
<feBlend mode="normal" in2="BackgroundImageFix" result="effect1_dropShadow"/>
<feBlend mode="normal" in="SourceGraphic" in2="effect1_dropShadow" result="shape"/>
</filter>
<linearGradient id="paint0_linear" x1="25" y1="7" x2="25" y2="41" gradientUnits="userSpaceOnUse">
<stop stop-color="#2B2B2B"/>
</linearGradient>
</defs>
</svg>
