<svg width="27" height="27" viewBox="0 0 27 27" fill="none" xmlns="http://www.w3.org/2000/svg">
<g clip-path="url(#clip0)">
<path d="M15.5348 13.5024L1.97603 26.5586C1.3411 26.1246 0.964124 25.4029 0.97079 24.6339V2.37092C0.964124 1.60192 1.3411 0.88015 1.97603 0.446228L15.5348 13.5024Z" fill="#2196F3"/>
<path d="M20.2792 8.94192L15.5348 13.5024L1.97607 0.446218C2.02716 0.406625 2.08037 0.369789 2.13543 0.335885C2.85202 -0.0984398 3.7471 -0.112461 4.47697 0.299107L20.2792 8.94192Z" fill="#4CAF50"/>
<path d="M26.0291 13.5024C26.038 14.3706 25.5662 15.1724 24.8032 15.5865L20.2795 18.0629L15.5352 13.5024L20.2795 8.94196L24.8032 11.4183C25.5662 11.8324 26.038 12.6343 26.0291 13.5024Z" fill="#FFC107"/>
<path d="M20.2792 18.0629L4.47697 26.7057C3.7455 27.1109 2.8538 27.0969 2.13543 26.6689C2.08037 26.635 2.02716 26.5982 1.97607 26.5586L15.5349 13.5024L20.2792 18.0629Z" fill="#F44336"/>
</g>
<defs>
<clipPath id="clip0">
<rect width="27" height="27" fill="white"/>
</clipPath>
</defs>
</svg>
