<svg width="28" height="34" viewBox="0 0 28 34" fill="none" xmlns="http://www.w3.org/2000/svg">
<path d="M14.5363 9.58165C13.2132 9.58165 11.165 8.09112 9.00816 8.14499C6.16254 8.18091 3.55254 9.77919 2.08441 12.3113C-0.869963 17.3935 1.32316 24.9 4.20504 29.0304C5.61879 31.0417 7.28629 33.3044 9.49754 33.2326C11.6182 33.1428 12.4157 31.8678 14.9894 31.8678C17.545 31.8678 18.27 33.2326 20.5175 33.1787C22.8013 33.1428 24.2513 31.1315 25.6469 29.1022C27.26 26.7677 27.9307 24.5049 27.9669 24.3792C27.9125 24.3613 23.5263 22.6911 23.4719 17.6628C23.4357 13.4606 26.9338 11.4493 27.0969 11.3595C25.1032 8.46824 22.04 8.14499 20.9707 8.07316C18.1794 7.85766 15.8413 9.58165 14.5363 9.58165ZM19.2488 5.34351C20.4269 3.94277 21.2063 1.98532 20.9888 0.0458374C19.3032 0.11767 17.2732 1.15925 16.0588 2.55999C14.9713 3.7991 14.0288 5.79247 14.2825 7.69604C16.1494 7.8397 18.0707 6.74425 19.2488 5.34351Z" fill="white"/>
</svg>
